<svg xmlns="http://www.w3.org/2000/svg" width="100" height="52" viewBox="0 0 100 52"><defs><style>.a{fill:none;}.b{fill:#f0f0ff;}.c{fill:#3232ee;}.d,.e,.f{stroke:none;}.e{fill:#1b1b95;}.f{fill:#2929cc;}</style></defs><g class="a" transform="translate(4 4)"><path class="d" d="M24,0H72a24,24,0,0,1,0,48H24A24,24,0,0,1,24,0Z"/><path class="e" d="M 24 1 C 20.89457702636719 1 17.88257598876953 1.607975006103516 15.04766845703125 2.807041168212891 C 12.3089599609375 3.965412139892578 9.849143981933594 5.623931884765625 7.736549377441406 7.736545562744141 C 5.623931884765625 9.849147796630859 3.965415954589844 12.3089599609375 2.807037353515625 15.04766845703125 C 1.60797119140625 17.8825740814209 1 20.89457321166992 1 24 C 1 27.10542678833008 1.60797119140625 30.1174259185791 2.807037353515625 32.95233154296875 C 3.965415954589844 35.6910400390625 5.623931884765625 38.15085220336914 7.736549377441406 40.26345443725586 C 9.849143981933594 42.37606811523438 12.3089599609375 44.03458786010742 15.04766845703125 45.19295883178711 C 17.88257598876953 46.39202499389648 20.89457702636719 47 24 47 L 72 47 C 75.10542297363281 47 78.11742401123047 46.39202499389648 80.95233154296875 45.19295883178711 C 83.6910400390625 44.03458786010742 86.15085601806641 42.37606811523438 88.26345062255859 40.26345443725586 C 90.37606811523438 38.15085220336914 92.03458404541016 35.6910400390625 93.19296264648438 32.95233154296875 C 94.39202880859375 30.1174259185791 95 27.10542678833008 95 24 C 95 20.89457321166992 94.39202880859375 17.8825740814209 93.19296264648438 15.04766845703125 C 92.03458404541016 12.3089599609375 90.37606811523438 9.849147796630859 88.26345062255859 7.736545562744141 C 86.15085601806641 5.623931884765625 83.6910400390625 3.965412139892578 80.95233154296875 2.807041168212891 C 78.11742401123047 1.607975006103516 75.10542297363281 1 72 1 L 24 1 M 24 0 L 72 0 C 85.25483703613281 0 96 10.74515914916992 96 24 C 96 37.25484085083008 85.25483703613281 48 72 48 L 24 48 C 10.74516296386719 48 0 37.25484085083008 0 24 C 0 10.74515914916992 10.74516296386719 0 24 0 Z"/></g><g class="b"><path class="d" d="M 72 47 L 24 47 C 20.89457321166992 47 17.8825740814209 46.39202499389648 15.04766654968262 45.19295883178711 C 12.3089599609375 44.03458786010742 9.849146842956543 42.37606811523438 7.736546516418457 40.26345443725586 C 5.6239333152771 38.15085220336914 3.965413331985474 35.6910400390625 2.807039976119995 32.95233154296875 C 1.607973337173462 30.1174259185791 1 27.10542678833008 1 24 C 1 20.89457321166992 1.607973337173462 17.8825740814209 2.807039976119995 15.04766654968262 C 3.965413331985474 12.3089599609375 5.6239333152771 9.849146842956543 7.736546516418457 7.736546516418457 C 9.849146842956543 5.6239333152771 12.3089599609375 3.965413331985474 15.04766654968262 2.807039976119995 C 17.8825740814209 1.607973337173462 20.89457321166992 1 24 1 L 72 1 C 75.10542297363281 1 78.11742401123047 1.607973337173462 80.95233154296875 2.807039976119995 C 83.6910400390625 3.965413331985474 86.15085601806641 5.6239333152771 88.26345062255859 7.736546516418457 C 90.37606811523438 9.849146842956543 92.03458404541016 12.3089599609375 93.19296264648438 15.04766654968262 C 94.39202880859375 17.8825740814209 95 20.89457321166992 95 24 C 95 27.10542678833008 94.39202880859375 30.1174259185791 93.19296264648438 32.95233154296875 C 92.03458404541016 35.6910400390625 90.37606811523438 38.15085220336914 88.26345062255859 40.26345443725586 C 86.15085601806641 42.37606811523438 83.6910400390625 44.03458786010742 80.95233154296875 45.19295883178711 C 78.11742401123047 46.39202499389648 75.10542297363281 47 72 47 Z"/><path class="f" d="M 24 2 C 21.02912902832031 2 18.14820098876953 2.581401824951172 15.43721771240234 3.728042602539062 C 12.81771087646484 4.83599853515625 10.46472930908203 6.422557830810547 8.443641662597656 8.443641662597656 C 6.422554016113281 10.46472930908203 4.83599853515625 12.81771469116211 3.728042602539062 15.43721389770508 C 2.581398010253906 18.1481990814209 2 21.02912902832031 2 24 C 2 26.97087097167969 2.581398010253906 29.8518009185791 3.728042602539062 32.56278610229492 C 4.83599853515625 35.18228530883789 6.422554016113281 37.53527069091797 8.443641662597656 39.55635833740234 C 10.46472930908203 41.57744216918945 12.81771087646484 43.16400146484375 15.43721771240234 44.27195739746094 C 18.14820098876953 45.41860198974609 21.02912902832031 46 24 46 L 72 46 C 74.97085571289062 46 77.85179901123047 45.41860198974609 80.56277465820312 44.27195739746094 C 83.18228149414062 43.16400146484375 85.53525543212891 41.57744216918945 87.55634307861328 39.55635833740234 C 89.57743072509766 37.53527069091797 91.16400146484375 35.18228530883789 92.27195739746094 32.56278610229492 C 93.41860198974609 29.8518009185791 94 26.97085762023926 94 24 C 94 21.02914237976074 93.41860198974609 18.1481990814209 92.27195739746094 15.43721389770508 C 91.16400146484375 12.81771469116211 89.57743072509766 10.46472930908203 87.55634307861328 8.443641662597656 C 85.53525543212891 6.422557830810547 83.18228149414062 4.83599853515625 80.56277465820312 3.728042602539062 C 77.85179901123047 2.581401824951172 74.97085571289062 2 72 2 L 24 2 M 24 0 L 72 0 C 85.25482940673828 0 96 10.74515533447266 96 24 C 96 37.25484466552734 85.25482940673828 48 72 48 L 24 48 C 10.74515533447266 48 0 37.25484466552734 0 24 C 0 10.74515533447266 10.74515533447266 0 24 0 Z"/></g><g transform="translate(0.836 -3730.988)"><path class="c" d="M382.763,312.114a1.143,1.143,0,0,1-1.143-1.143v-3.429a1.143,1.143,0,0,1,2.286,0v3.429a1.143,1.143,0,0,1-1.143,1.143Z" transform="translate(-358.928 3458.708)"/><path class="c" d="M413.267,228.317a1.143,1.143,0,0,1-.808-1.951l2.424-2.424a1.143,1.143,0,1,1,1.616,1.616l-2.424,2.424A1.14,1.14,0,0,1,413.267,228.317Z" transform="translate(-381.35 3519.567)"/><path class="c" d="M343.108,298.476a1.143,1.143,0,0,1-.808-1.951l2.424-2.424a1.143,1.143,0,1,1,1.616,1.616l-2.424,2.424a1.139,1.139,0,0,1-.808.335Z" transform="translate(-329.777 3467.995)"/><path class="c" d="M429.33,265.547H425.9a1.143,1.143,0,1,1,0-2.286h3.429a1.143,1.143,0,1,1,0,2.286Z" transform="translate(-390.637 3490.418)"/><path class="c" d="M330.112,265.547h-3.429a1.143,1.143,0,0,1,0-2.286h3.429a1.143,1.143,0,1,1,0,2.286Z" transform="translate(-317.705 3490.418)"/><path class="c" d="M415.691,298.476a1.139,1.139,0,0,1-.808-.335l-2.424-2.424a1.143,1.143,0,1,1,1.616-1.616l2.424,2.424a1.143,1.143,0,0,1-.808,1.951Z" transform="translate(-381.35 3467.995)"/><path class="c" d="M345.532,228.317a1.139,1.139,0,0,1-.808-.335l-2.424-2.424a1.143,1.143,0,0,1,1.616-1.616l2.424,2.424a1.143,1.143,0,0,1-.808,1.951Z" transform="translate(-329.777 3519.568)"/><path class="c" d="M382.763,212.9a1.143,1.143,0,0,1-1.143-1.143v-3.429a1.143,1.143,0,1,1,2.286,0v3.429A1.143,1.143,0,0,1,382.763,212.9Z" transform="translate(-358.928 3531.641)"/><path class="c" d="M366.908,255.407a6.857,6.857,0,1,1,6.857-6.857A6.857,6.857,0,0,1,366.908,255.407Zm0-11.429a4.571,4.571,0,1,0,4.571,4.571A4.571,4.571,0,0,0,366.908,243.978Z" transform="translate(-343.072 3506.273)"/></g></svg>