<svg xmlns="http://www.w3.org/2000/svg" width="100" height="52" viewBox="0 0 100 52"><defs><style>.a{fill:none;}.b{fill:#242432;}.c,.f{fill:#fba700;}.d,.e,.f{stroke:none;}.e{fill:#e69700;}</style></defs><g class="a" transform="translate(4 4)"><path class="d" d="M24,0H72a24,24,0,0,1,0,48H24A24,24,0,0,1,24,0Z"/><path class="e" d="M 24 1 C 20.89457702636719 1 17.88257598876953 1.607975006103516 15.04766845703125 2.807041168212891 C 12.3089599609375 3.965412139892578 9.849143981933594 5.623931884765625 7.736549377441406 7.736545562744141 C 5.623931884765625 9.849147796630859 3.965415954589844 12.3089599609375 2.807037353515625 15.04766845703125 C 1.60797119140625 17.8825740814209 1 20.89457321166992 1 24 C 1 27.10542678833008 1.60797119140625 30.1174259185791 2.807037353515625 32.95233154296875 C 3.965415954589844 35.6910400390625 5.623931884765625 38.15085220336914 7.736549377441406 40.26345443725586 C 9.849143981933594 42.37606811523438 12.3089599609375 44.03458786010742 15.04766845703125 45.19295883178711 C 17.88257598876953 46.39202499389648 20.89457702636719 47 24 47 L 72 47 C 75.10542297363281 47 78.11742401123047 46.39202499389648 80.95233154296875 45.19295883178711 C 83.6910400390625 44.03458786010742 86.15085601806641 42.37606811523438 88.26345062255859 40.26345443725586 C 90.37606811523438 38.15085220336914 92.03458404541016 35.6910400390625 93.19296264648438 32.95233154296875 C 94.39202880859375 30.1174259185791 95 27.10542678833008 95 24 C 95 20.89457321166992 94.39202880859375 17.8825740814209 93.19296264648438 15.04766845703125 C 92.03458404541016 12.3089599609375 90.37606811523438 9.849147796630859 88.26345062255859 7.736545562744141 C 86.15085601806641 5.623931884765625 83.6910400390625 3.965412139892578 80.95233154296875 2.807041168212891 C 78.11742401123047 1.607975006103516 75.10542297363281 1 72 1 L 24 1 M 24 0 L 72 0 C 85.25483703613281 0 96 10.74515914916992 96 24 C 96 37.25484085083008 85.25483703613281 48 72 48 L 24 48 C 10.74516296386719 48 0 37.25484085083008 0 24 C 0 10.74515914916992 10.74516296386719 0 24 0 Z"/></g><g class="b"><path class="d" d="M 72 47 L 24 47 C 20.89457321166992 47 17.8825740814209 46.39202499389648 15.04766654968262 45.19295883178711 C 12.3089599609375 44.03458786010742 9.849146842956543 42.37606811523438 7.736546516418457 40.26345443725586 C 5.6239333152771 38.15085220336914 3.965413331985474 35.6910400390625 2.807039976119995 32.95233154296875 C 1.607973337173462 30.1174259185791 1 27.10542678833008 1 24 C 1 20.89457321166992 1.607973337173462 17.8825740814209 2.807039976119995 15.04766654968262 C 3.965413331985474 12.3089599609375 5.6239333152771 9.849146842956543 7.736546516418457 7.736546516418457 C 9.849146842956543 5.6239333152771 12.3089599609375 3.965413331985474 15.04766654968262 2.807039976119995 C 17.8825740814209 1.607973337173462 20.89457321166992 1 24 1 L 72 1 C 75.10542297363281 1 78.11742401123047 1.607973337173462 80.95233154296875 2.807039976119995 C 83.6910400390625 3.965413331985474 86.15085601806641 5.6239333152771 88.26345062255859 7.736546516418457 C 90.37606811523438 9.849146842956543 92.03458404541016 12.3089599609375 93.19296264648438 15.04766654968262 C 94.39202880859375 17.8825740814209 95 20.89457321166992 95 24 C 95 27.10542678833008 94.39202880859375 30.1174259185791 93.19296264648438 32.95233154296875 C 92.03458404541016 35.6910400390625 90.37606811523438 38.15085220336914 88.26345062255859 40.26345443725586 C 86.15085601806641 42.37606811523438 83.6910400390625 44.03458786010742 80.95233154296875 45.19295883178711 C 78.11742401123047 46.39202499389648 75.10542297363281 47 72 47 Z"/><path class="f" d="M 24 2 C 21.02912902832031 2 18.14820098876953 2.581401824951172 15.43721771240234 3.728042602539062 C 12.81771087646484 4.83599853515625 10.46472930908203 6.422557830810547 8.443641662597656 8.443641662597656 C 6.422554016113281 10.46472930908203 4.83599853515625 12.81771469116211 3.728042602539062 15.43721389770508 C 2.581398010253906 18.1481990814209 2 21.02912902832031 2 24 C 2 26.97087097167969 2.581398010253906 29.8518009185791 3.728042602539062 32.56278610229492 C 4.83599853515625 35.18228530883789 6.422554016113281 37.53527069091797 8.443641662597656 39.55635833740234 C 10.46472930908203 41.57744216918945 12.81771087646484 43.16400146484375 15.43721771240234 44.27195739746094 C 18.14820098876953 45.41860198974609 21.02912902832031 46 24 46 L 72 46 C 74.97085571289062 46 77.85179901123047 45.41860198974609 80.56277465820312 44.27195739746094 C 83.18228149414062 43.16400146484375 85.53525543212891 41.57744216918945 87.55634307861328 39.55635833740234 C 89.57743072509766 37.53527069091797 91.16400146484375 35.18228530883789 92.27195739746094 32.56278610229492 C 93.41860198974609 29.8518009185791 94 26.97085762023926 94 24 C 94 21.02914237976074 93.41860198974609 18.1481990814209 92.27195739746094 15.43721389770508 C 91.16400146484375 12.81771469116211 89.57743072509766 10.46472930908203 87.55634307861328 8.443641662597656 C 85.53525543212891 6.422557830810547 83.18228149414062 4.83599853515625 80.56277465820312 3.728042602539062 C 77.85179901123047 2.581401824951172 74.97085571289062 2 72 2 L 24 2 M 24 0 L 72 0 C 85.25482940673828 0 96 10.74515533447266 96 24 C 96 37.25484466552734 85.25482940673828 48 72 48 L 24 48 C 10.74515533447266 48 0 37.25484466552734 0 24 C 0 10.74515533447266 10.74515533447266 0 24 0 Z"/></g><g transform="translate(0.836 -3730.988)"><path class="c" d="M748.748,229.224a16.42,16.42,0,0,1-5.655-1,.818.818,0,0,1-.493-1.06.847.847,0,0,1,1.083-.482,14.956,14.956,0,0,0,14.378-2.341c-6.181.064-12.227-2.793-15.236-7.379A13.127,13.127,0,0,1,741,206.934a17.72,17.72,0,0,1,3.391-7.21,14.284,14.284,0,0,0-10.1,14.995.828.828,0,0,1-.754.9.837.837,0,0,1-.92-.738,16.005,16.005,0,0,1,13.966-17.323.846.846,0,0,1,.868.446.81.81,0,0,1-.152.947c-4.3,4.276-6.915,11.23-3.048,17.125,3.051,4.65,9.616,7.31,15.967,6.47a.847.847,0,0,1,.856.429.809.809,0,0,1-.115.934,16.541,16.541,0,0,1-12.2,5.315Z" transform="translate(-676.5 3541.437)"/><path class="c" d="M748.748,229.224a16.42,16.42,0,0,1-5.655-1,.818.818,0,0,1-.493-1.06.847.847,0,0,1,1.083-.482,14.956,14.956,0,0,0,14.378-2.341c-6.181.064-12.227-2.793-15.236-7.379A13.127,13.127,0,0,1,741,206.934a17.72,17.72,0,0,1,3.391-7.21,14.284,14.284,0,0,0-10.1,14.995.828.828,0,0,1-.754.9.837.837,0,0,1-.92-.738,16.005,16.005,0,0,1,13.966-17.323.846.846,0,0,1,.868.446.81.81,0,0,1-.152.947c-4.3,4.276-6.915,11.23-3.048,17.125,3.051,4.65,9.616,7.31,15.967,6.47a.847.847,0,0,1,.856.429.809.809,0,0,1-.115.934,16.541,16.541,0,0,1-12.2,5.315Z" transform="translate(-676.5 3541.437)"/><path class="c" d="M748.748,229.224a16.42,16.42,0,0,1-5.655-1,.818.818,0,0,1-.493-1.06.847.847,0,0,1,1.083-.482,14.956,14.956,0,0,0,14.378-2.341c-6.181.064-12.227-2.793-15.236-7.379A13.127,13.127,0,0,1,741,206.934a17.72,17.72,0,0,1,3.391-7.21,14.284,14.284,0,0,0-10.1,14.995.828.828,0,0,1-.754.9.837.837,0,0,1-.92-.738,16.005,16.005,0,0,1,13.966-17.323.846.846,0,0,1,.868.446.81.81,0,0,1-.152.947c-4.3,4.276-6.915,11.23-3.048,17.125,3.051,4.65,9.616,7.31,15.967,6.47a.847.847,0,0,1,.856.429.809.809,0,0,1-.115.934,16.541,16.541,0,0,1-12.2,5.315Z" transform="translate(-676.5 3541.437)"/><path class="c" d="M748.748,229.224a16.42,16.42,0,0,1-5.655-1,.818.818,0,0,1-.493-1.06.847.847,0,0,1,1.083-.482,14.956,14.956,0,0,0,14.378-2.341c-6.181.064-12.227-2.793-15.236-7.379A13.127,13.127,0,0,1,741,206.934a17.72,17.72,0,0,1,3.391-7.21,14.284,14.284,0,0,0-10.1,14.995.828.828,0,0,1-.754.9.837.837,0,0,1-.92-.738,16.005,16.005,0,0,1,13.966-17.323.846.846,0,0,1,.868.446.81.81,0,0,1-.152.947c-4.3,4.276-6.915,11.23-3.048,17.125,3.051,4.65,9.616,7.31,15.967,6.47a.847.847,0,0,1,.856.429.809.809,0,0,1-.115.934,16.541,16.541,0,0,1-12.2,5.315Z" transform="translate(-676.5 3541.437)"/><path class="c" d="M748.748,229.224a16.42,16.42,0,0,1-5.655-1,.818.818,0,0,1-.493-1.06.847.847,0,0,1,1.083-.482,14.956,14.956,0,0,0,14.378-2.341c-6.181.064-12.227-2.793-15.236-7.379A13.127,13.127,0,0,1,741,206.934a17.72,17.72,0,0,1,3.391-7.21,14.284,14.284,0,0,0-10.1,14.995.828.828,0,0,1-.754.9.837.837,0,0,1-.92-.738,16.005,16.005,0,0,1,13.966-17.323.846.846,0,0,1,.868.446.81.81,0,0,1-.152.947c-4.3,4.276-6.915,11.23-3.048,17.125,3.051,4.65,9.616,7.31,15.967,6.47a.847.847,0,0,1,.856.429.809.809,0,0,1-.115.934,16.541,16.541,0,0,1-12.2,5.315Z" transform="translate(-676.5 3541.437)"/><path class="c" d="M748.748,229.224a16.42,16.42,0,0,1-5.655-1,.818.818,0,0,1-.493-1.06.847.847,0,0,1,1.083-.482,14.956,14.956,0,0,0,14.378-2.341c-6.181.064-12.227-2.793-15.236-7.379A13.127,13.127,0,0,1,741,206.934a17.72,17.72,0,0,1,3.391-7.21,14.284,14.284,0,0,0-10.1,14.995.828.828,0,0,1-.754.9.837.837,0,0,1-.92-.738,16.005,16.005,0,0,1,13.966-17.323.846.846,0,0,1,.868.446.81.81,0,0,1-.152.947c-4.3,4.276-6.915,11.23-3.048,17.125,3.051,4.65,9.616,7.31,15.967,6.47a.847.847,0,0,1,.856.429.809.809,0,0,1-.115.934,16.541,16.541,0,0,1-12.2,5.315Z" transform="translate(-676.5 3541.437)"/><path class="c" d="M748.748,229.224a16.42,16.42,0,0,1-5.655-1,.818.818,0,0,1-.493-1.06.847.847,0,0,1,1.083-.482,14.956,14.956,0,0,0,14.378-2.341c-6.181.064-12.227-2.793-15.236-7.379A13.127,13.127,0,0,1,741,206.934a17.72,17.72,0,0,1,3.391-7.21,14.284,14.284,0,0,0-10.1,14.995.828.828,0,0,1-.754.9.837.837,0,0,1-.92-.738,16.005,16.005,0,0,1,13.966-17.323.846.846,0,0,1,.868.446.81.81,0,0,1-.152.947c-4.3,4.276-6.915,11.23-3.048,17.125,3.051,4.65,9.616,7.31,15.967,6.47a.847.847,0,0,1,.856.429.809.809,0,0,1-.115.934,16.541,16.541,0,0,1-12.2,5.315Z" transform="translate(-676.5 3541.437)"/><path class="c" d="M726.658,282.232a6.026,6.026,0,1,1,6.158-6.025A6.092,6.092,0,0,1,726.658,282.232Zm0-10.407a4.383,4.383,0,1,0,4.478,4.382A4.431,4.431,0,0,0,726.658,271.825Z" transform="translate(-667.838 3488.756)"/><path class="c" d="M748.748,229.224a16.42,16.42,0,0,1-5.655-1,.818.818,0,0,1-.493-1.06.847.847,0,0,1,1.083-.482,14.956,14.956,0,0,0,14.378-2.341c-6.181.064-12.227-2.793-15.236-7.379A13.127,13.127,0,0,1,741,206.934a17.72,17.72,0,0,1,3.391-7.21,14.284,14.284,0,0,0-10.1,14.995.828.828,0,0,1-.754.9.837.837,0,0,1-.92-.738,16.005,16.005,0,0,1,13.966-17.323.846.846,0,0,1,.868.446.81.81,0,0,1-.152.947c-4.3,4.276-6.915,11.23-3.048,17.125,3.051,4.65,9.616,7.31,15.967,6.47a.847.847,0,0,1,.856.429.809.809,0,0,1-.115.934,16.541,16.541,0,0,1-12.2,5.315Z" transform="translate(-676.5 3541.437)"/></g></svg>