<svg xmlns="http://www.w3.org/2000/svg" width="134" height="222" viewBox="0 0 134 222"><defs><style>.a{fill:#2929cc;}.b{fill:#1b1b95;}.c{fill:#3232ee;}.d{fill:#fba700;}.e{fill:#e69700;}.f{fill:#ffb110;}.g{font-size:6px;font-family:Lato-Light, Lato;font-weight:300;}.h{fill:#f0f0ff;}.i{fill:#e1e1f1;}.j{fill:#f5f5ff;}.k{fill:#fff;}.l{fill:#242432;}.m{fill:#090919;}.n{fill:#31313e;}.o{fill:#3b3b49;}</style></defs><g transform="translate(-1444 -259)"><g transform="translate(1444.502 259)"><path class="a" d="M1215.622,759.861l-26.989-15.582V713.34l26.989,15.582Z" transform="translate(-1188.633 -697.87)"/><path class="b" d="M1324.984,744.279l-26.989,15.582V728.922l26.989-15.582Z" transform="translate(-1271.005 -697.87)"/><path class="c" d="M1215.62,681.705l-26.989-15.582,26.793-15.469,26.989,15.582Z" transform="translate(-1188.631 -650.654)"/></g><g transform="translate(1521.947 259)"><path class="d" d="M1215.622,759.861l-26.989-15.582V713.34l26.989,15.582Z" transform="translate(-1188.633 -697.87)"/><path class="e" d="M1324.984,744.279l-26.989,15.582V728.922l26.989-15.582Z" transform="translate(-1271.005 -697.87)"/><path class="f" d="M1215.62,681.705l-26.989-15.582,26.793-15.469,26.989,15.582Z" transform="translate(-1188.631 -650.654)"/></g><text class="g" transform="translate(1444 414)"><tspan x="0" y="0">Blue</tspan><tspan x="0" y="7">Light: #3232EE</tspan><tspan x="0" y="14">Main: #2929CC</tspan><tspan x="0" y="21">Dark: #1B1B95</tspan></text><text class="g" transform="translate(1444 451)"><tspan x="0" y="0">Light Theme</tspan><tspan x="0" y="7">Light: #F5F5FF</tspan><tspan x="0" y="14">Main: #F0F0FF</tspan><tspan x="0" y="21">Dark: #E1E1F1</tspan><tspan x="0" y="28">Hard Light: #FFFFFF</tspan></text><text class="g" transform="translate(1522 451)"><tspan x="0" y="0">Dark Theme</tspan><tspan x="0" y="7">Light: #31313E</tspan><tspan x="0" y="14">Main: #242432</tspan><tspan x="0" y="21">Dark: #090919</tspan><tspan x="0" y="28">Hard Light: #3B3B49</tspan></text><text class="g" transform="translate(1522 414)"><tspan x="0" y="0">Orange</tspan><tspan x="0" y="7">Light: #FFB110</tspan><tspan x="0" y="14">Main: #FBA700</tspan><tspan x="0" y="21">Dark: #E69700</tspan></text><g transform="translate(1444.502 329.832)"><g transform="translate(0 0)"><path class="h" d="M1215.622,759.861l-26.989-15.582V713.34l26.989,15.582Z" transform="translate(-1188.633 -697.87)"/><path class="i" d="M1324.984,744.279l-26.989,15.582V728.922l26.989-15.582Z" transform="translate(-1271.005 -697.87)"/><path class="j" d="M1215.62,681.705l-26.989-15.582,26.793-15.469,26.989,15.582Z" transform="translate(-1188.631 -650.654)"/></g><ellipse class="k" cx="6.5" cy="6" rx="6.5" ry="6" transform="translate(20.499 9.168)"/></g><g transform="translate(1521.947 329.832)"><g transform="translate(0 0)"><path class="l" d="M1215.622,759.861l-26.989-15.582V713.34l26.989,15.582Z" transform="translate(-1188.633 -697.87)"/><path class="m" d="M1324.984,744.279l-26.989,15.582V728.922l26.989-15.582Z" transform="translate(-1271.005 -697.87)"/><path class="n" d="M1215.62,681.705l-26.989-15.582,26.793-15.469,26.989,15.582Z" transform="translate(-1188.631 -650.654)"/></g><path class="o" d="M6.063,0A6.063,6.063,0,1,1,0,6.063,6.063,6.063,0,0,1,6.063,0Z" transform="translate(20.905 9.371)"/></g></g></svg>