<svg xmlns="http://www.w3.org/2000/svg" width="134.326" height="116.682" viewBox="0 0 134.326 116.682"><defs><style>.a{fill:#fff;fill-rule:evenodd;}</style></defs><path class="a" d="M111.582.491c-1.2-.892-2.851-.368-4.221,0l-.486.037c-.463.122-.97.21-1.494.336-2.177.525-4.5.911-6.649,1.494-.474.128-.83.1-1.307.224-.772.208-1.652.4-2.391.672l-.523.075c-.712.22-1.571.416-2.279.672l-.523.075c-.66.224-1.375.339-2.092.56-.733.226-1.586.431-2.316.672-.158.052-.5,0-.635.075A35.5,35.5,0,0,1,83.118,6.43l-.56.075c-.5.169-1.163.37-1.681.523l-.411.037C78.35,7.785,76,8.261,73.854,8.9c-1.378.408-2.776.614-4.072,1.083l-.523.075c-.3.1-.736.246-1.046.336l-.448.075-.037.112H67.28c-.084.023-.225.124-.3.149l-.56.075c-.7.246-1.572.416-2.279.672l-.523.075c-2.538.862-5.335,1.326-7.882,2.167l-.411.037c-.751.218-1.646.454-2.391.71l-.523.075c-.492.162-1.113.323-1.606.486l-.523.075a19.005,19.005,0,0,0-2.167.672l-.635.075c-2.09.71-4.4,1.1-6.5,1.793l-.523.075c-.71.255-1.57.416-2.279.672l-.523.075c-.938.337-2.038.563-2.988.859l-.523.075c-.709.256-1.562.448-2.279.672l-.523.075c-.628.227-1.29.321-1.98.523-1.693.495-3.547.916-5.23,1.457l-.523.075c-.855.309-1.758.439-2.69.71-3.311.961-6.826,1.736-10.123,2.764-.4.124-.688.1-1.083.224-1.22.37-2.613.664-3.81,1.083-.387.136-.721.108-1.121.224-.765.222-1.666.46-2.428.71a6.586,6.586,0,0,0-1.532.448,2.11,2.11,0,0,0-.784,1.158,1.994,1.994,0,0,0,.486,1.569c.1.127.289.153.411.261.277.246.6.448.9.672.945.706,1.807,1.529,2.764,2.241.114.085.193.243.3.336.2.18.454.285.672.448.51.381.975.842,1.494,1.233.165.124.252.362.411.486,1.582,1.223,3.049,2.517,4.707,3.661.7.482,1.23,1.214,1.905,1.718.522.389,1.009.767,1.532,1.158.077.058.184.241.261.3.3.223.619.39.9.635.472.417.953.893,1.457,1.27a12.89,12.89,0,0,1,1.681,1.345,9.114,9.114,0,0,1,.448,2.129c.248.951.405,2.071.672,3.026l.075.672c.271.948.387,2.076.672,3.026l.075.71c.622,2.21.894,4.674,1.457,6.911.3,1.186.385,2.4.71,3.511l.075.71c.285.942.4,2.076.672,3.026l.075.71c.032.121.115.282.149.411l.037.336c.071.128.271.2.374.3.447,0,.48-.153.71-.336a7.1,7.1,0,0,1,.187-1.083l.037-.71c.13-.562.2-1.349.336-1.905l.037-.71c.129-.565.2-1.34.336-1.905l.075-.934c.081-.293.064-.678.149-1.046.332-1.421.37-3.071.71-4.483l.037-.747c.231-.987.287-2.192.523-3.175.11-.458-.029-.968.187-1.307.016-.479,1.239-.993,1.606-1.233,1.479-.967,3.014-1.934,4.483-2.914.2-.131.4-.169.6-.3.577-.376,1.211-.775,1.756-1.2.33-.255.769-.4,1.121-.635.212-.14.38-.382.6-.523A3.853,3.853,0,0,1,39.413,47l.187-.187c.181-.11.346-.145.523-.261.1-.063.2-.2.3-.261.15-.1.31-.116.448-.224.064-.05.077-.18.149-.224.16-.1.381-.235.523-.3.106-.048.207-.017.3-.075.315-.2.623-.469.934-.672.469-.306.955-.511,1.419-.822.4-.269.825-.593,1.233-.859.267-.174.57-.254.822-.448.064-.049.082-.174.149-.224.136-.1.317-.219.448-.3.171-.1.354-.089.523-.187.086-.05.157-.177.261-.224h.149c1.518-1.061,3.149-2.083,4.707-3.1.47-.307.954-.51,1.419-.822.325-.218.666-.514,1.009-.71a4.08,4.08,0,0,0,.747-.448c.028-.04.023-.035.037-.112.481-.034,1.134-.661,1.494-.9.567-.37,1.152-.638,1.718-1.009.675-.442,1.377-.939,2.055-1.382,1.489-.973,3.009-1.877,4.483-2.839.446-.291.9-.487,1.345-.784,2.5-1.678,5.06-3.289,7.658-4.856,1.454-.877,2.838-1.913,4.333-2.764.626-.356,1.175-.926,2.092-.374a1.451,1.451,0,0,1,.3,1.793,4.314,4.314,0,0,1-1.233.971c-.669.48-1.3,1.061-1.98,1.532-2.485,1.722-4.788,3.662-7.284,5.379-.718.494-1.373,1.15-2.092,1.644-.91.625-1.743,1.28-2.652,1.905-.205.141-.393.381-.6.523a8.622,8.622,0,0,0-1.569,1.158h-.149v.112a7.634,7.634,0,0,0-1.494,1.121c-.214.186-.481.279-.71.448-.266.2-.534.455-.784.672a4.24,4.24,0,0,1-.411.224c-.205.142-.392.382-.6.523-.14.1-.274.124-.411.224-.12.087-.191.27-.3.374a6.366,6.366,0,0,1-.934.56c-.368.247-.687.6-1.083.822v.112h-.149a3.834,3.834,0,0,1-.523.374c-.214.163-.361.456-.6.6-.133.08-.28.065-.411.149-.21.135-.392.382-.6.523-.309.212-.588.386-.9.6-.208.143-.391.381-.6.523-.844.58-1.618,1.177-2.465,1.756-.252.172-.426.488-.672.672l-.224.037a2.828,2.828,0,0,0-.336.224c-.969.651-1.841,1.507-2.8,2.167-.457.314-.868.661-1.307.971l-.149.037c-.923.8-1.947,1.484-2.951,2.2-1.193.855-2.323,1.808-3.549,2.652-.358.247-.688.613-1.046.859-.665.457-1.289.91-1.942,1.382a7.642,7.642,0,0,1-.971.747c-.169,0-1.942,4.445-1.942,4.445l-.261.9-.224,1.233-.037.747s-.558,4.849-1.083,7.135l-.037.635c-.1.4-.384,1.412-.112,1.756a.417.417,0,0,0,.261.261.927.927,0,0,0,.747,0c.636-.359,1.26-.756,1.942-1.083a9.59,9.59,0,0,0,.822-.523c.556-.347,1.155-.579,1.681-.934l.261-.075c.321-.2.687-.432,1.009-.635l.336-.112c1.147-.716,2.412-1.378,3.549-2.092,0-.14,2.263-1.467,3.562-2.314a.93.93,0,0,1,.137.147h.149c.057.264.37.385.56.523.435.316.824.684,1.27,1.009.2.143.365.377.56.523.722.539,1.381,1.151,2.092,1.681a13.9,13.9,0,0,1,1.718,1.345c.028.04.023.035.037.112.325.057.539.373.747.56.188.169.485.279.672.448a18.091,18.091,0,0,0,1.419,1.233c2.54,1.843,4.816,3.989,7.359,5.827.289.209.534.536.822.747.362.266.747.489,1.083.784a3.028,3.028,0,0,0,.635.523,2.092,2.092,0,0,0,1.644-.037c.581-.352.8-1.023,1.158-1.606.633-1.039,1.209-2.1,1.83-3.175l.149-.112c.376-.582.6-1.207.971-1.793.989-1.559,1.877-3.189,2.8-4.819.324-.571.76-1.146,1.083-1.718.53-.938,1-1.828,1.532-2.764.079-.139.258-.31.336-.448.172-.3.26-.6.448-.9.613-.954,1.187-1.994,1.793-2.951.186-.294.26-.6.448-.9,1.048-1.643,1.983-3.355,2.951-5.08.318-.567.761-1.151,1.083-1.718.607-1.069,1.189-2.121,1.83-3.138.187-.3.261-.6.448-.9.606-.959,1.2-1.986,1.793-2.951l.075-.336A5.81,5.81,0,0,1,87.19,47c.07-.106.227-.167.3-.261.144-.189.17-.434.3-.635.2-.313.438-.659.635-.971.386-.611.651-1.236,1.009-1.868.188-.332.47-.685.672-1.009l.075-.261c.472-.751.939-1.57,1.419-2.316.054-.084.022-.168.075-.261.431-.768.949-1.57,1.419-2.316.084-.134.143-.445.224-.56.021-.03.125-.038.149-.075l.075-.261c.312-.5.6-.991.9-1.532.372-.69.885-1.374,1.27-2.055.194-.343.366-.66.56-.971.052-.084.015-.215.075-.3a41.792,41.792,0,0,0,2.2-3.735c.325-.572.763-1.147,1.083-1.718,1.1-1.962,2.174-3.914,3.362-5.79.372-.588.626-1.183.971-1.793.2-.358.492-.735.71-1.083.241-.386.373-.761.6-1.158.079-.14.25-.312.336-.448.185-.292.26-.606.448-.9.39-.6.718-1.221,1.083-1.868.322-.57.762-1.146,1.083-1.718.107-.191.112-.34.224-.523l.112-.037c.133-.184.173-.478.3-.672.207-.321.487-.677.672-1.009.236-.42.375-.83.635-1.233.276-.427.617-.9.859-1.345l.037-.187c.086-.136.258-.308.336-.448.054-.1.011-.211.075-.3a8.024,8.024,0,0,0,1.046-1.718A2.89,2.89,0,0,0,111.582.491Z" transform="matrix(0.94, -0.342, 0.342, 0.94, 0, 38.539)"/></svg>